<svg xmlns="http://www.w3.org/2000/svg" width="940" height="501" viewBox="0 0 940 501">
  <g fill="none" fill-rule="evenodd" stroke="#B3DBEE" transform="translate(2 2)">
    <polygon stroke-width="4.035" points="935.985 .539 935.985 28.775 796.49 28.775 796.49 .539"/>
    <polygon stroke-width="4.023" points="935.991 467.889 935.991 495.954 796.484 495.954 796.484 467.889"/>
    <path stroke-width="4.154" d="M795.71982,28.7155993 C706.622652,65.0520043 648.356702,151.887322 648.356702,248.334828 C648.356702,344.782335 706.622652,431.617652 795.71982,467.954057"/>
    <polygon stroke-width="4.154" points="935.926 168.473 746.772 168.473 746.772 328.196 935.926 328.196"/>
    <polygon stroke-width="4.154" points="935.926 188.439 746.772 188.439 746.772 308.231 935.926 308.231"/>
    <path stroke-width="4.154" d="M746.77212 188.438677C713.782614 188.438677 687.039335 215.255099 687.039335 248.334832 687.039335 281.414564 713.782614 308.230986 746.77212 308.230986 779.761626 308.230986 806.504905 281.414564 806.504905 248.334832 806.504905 215.255099 779.761626 188.438677 746.77212 188.438677zM468.01913 188.438677C501.008636 188.438677 527.751915 215.255099 527.751915 248.334832 527.751915 281.414564 501.008636 308.230986 468.01913 308.230986L468.01913 248.334827 468.01913 188.438677z"/>
    <path stroke-width="4.154" d="M468.01913 228.36944C479.015633 228.36944 487.93006 237.308248 487.93006 248.334827 487.93006 259.361405 479.015633 268.300213 468.01913 268.300213L468.01913 248.334827 468.01913 228.36944zM896.10409 218.386752L896.10409 278.282901M896.10409 248.334827L891.12635 248.334827M883.65976 240.847805C879.536071 240.847805 876.19316 244.199859 876.19316 248.334827 876.19316 252.469794 879.536071 255.821848 883.65976 255.821848 887.783449 255.821848 891.12636 252.469794 891.12636 248.334827 891.12636 244.199859 887.783449 240.847805 883.65976 240.847805L883.65976 240.847805z"/>
    <path stroke-linecap="round" stroke-width="4.154" d="M657.17295,30.7210693 L657.17295,0.772992899"/>
    <path stroke-linecap="round" stroke-width="4.153" d="M657.17295,495.89605 L657.17295,465.957361"/>
    <path stroke-width="4.154" d="M935.92594 138.525216L925.97048 138.525216M935.92594 358.144447L925.97048 358.144447M866.23769 168.473291L866.23769 158.490603M856.28223 168.473291L856.28223 158.490603M826.41584 168.473291L826.41584 158.490603M796.54944 168.473291L796.54944 158.490603M866.23769 328.196362L866.23769 338.17906M856.28223 328.196362L856.28223 338.17906M826.41584 328.196362L826.41584 338.17906M796.54944 328.196362L796.54944 338.17906M935.92594.431304932L935.92594 496.238353 468.01913 496.238353 468.01913.431304932 935.92594.431304932zM.0740557 496.204882L.0740557.397832434 467.98087.397832434 467.98087 496.204882.0740557 496.204882z"/>
    <polygon stroke-width="4.035" points=".015 496.098 .015 467.861 139.51 467.861 139.51 496.098"/>
    <polygon stroke-width="4.023" points=".009 28.748 .009 .682 139.516 .682 139.516 28.748"/>
    <path stroke-width="4.154" d="M140.28018,467.920586 C229.377348,431.584181 287.643299,344.748863 287.643299,248.301356 C287.643299,151.853849 229.377348,65.0185317 140.28018,28.682127"/>
    <polygon stroke-width="4.154" points=".074 328.163 189.228 328.163 189.228 168.44 .074 168.44"/>
    <polygon stroke-width="4.154" points=".074 308.198 189.228 308.198 189.228 188.405 .074 188.405"/>
    <path stroke-width="4.154" d="M189.22787 308.197504C222.208837 308.185402 248.938794 281.372527 248.938794 248.301355 248.938794 215.230183 222.208837 188.417309 189.22787 188.405206 167.882196 188.397373 148.154638 199.811801 137.479545 218.346951 126.804453 236.882101 126.804453 259.720609 137.479545 278.255759 148.154638 296.790909 167.882196 308.205338 189.22787 308.197504L189.22787 308.197504zM467.98087 308.197504C446.635196 308.205338 426.907638 296.790909 416.232545 278.255759 405.557453 259.720609 405.557453 236.882101 416.232545 218.346951 426.907638 199.811801 446.635196 188.397373 467.98087 188.405206L467.98087 248.301355 467.98087 308.197504z"/>
    <path stroke-width="4.154" d="M467.98087 268.266742C456.984367 268.266742 448.06994 259.327934 448.06994 248.301355 448.06994 237.274777 456.984367 228.335969 467.98087 228.335969L467.98087 248.301355 467.98087 268.266742zM39.895912 278.24943L39.895912 218.353281M39.895912 248.301355L44.873644 248.301355M52.340242 255.788376C56.4639313 255.788376 59.806842 252.436323 59.806842 248.301355 59.806842 244.166388 56.4639313 240.814334 52.340242 240.814334 48.2165527 240.814334 44.873642 244.166388 44.873642 248.301355 44.873642 252.436323 48.2165527 255.788376 52.340242 255.788376L52.340242 255.788376z"/>
    <path stroke-linecap="round" stroke-width="4.147" d="M278.82705,495.865587 L278.82705,466.022077"/>
    <path stroke-linecap="round" stroke-width="4.154" d="M278.82705,30.687597 L278.82705,0.739520402"/>
    <path stroke-width="4.154" d="M.0740557 358.110965L10.02952 358.110965M.0740557 138.491745L10.02952 138.491745M69.762304 328.162891L69.762304 338.145589M79.717768 328.162891L79.717768 338.145589M109.58416 328.162891L109.58416 338.145589M139.45055 328.162891L139.45055 338.145589M69.762304 168.43982L69.762304 158.457121M79.717768 168.43982L79.717768 158.457121M109.58416 168.43982L109.58416 158.457121M139.45055 168.43982L139.45055 158.457121"/>
  </g>
</svg>
